<svg xmlns="http://www.w3.org/2000/svg" width="32" height="32" viewBox="0 0 32 32" fill="none">
  <rect width="32" height="32" rx="6" fill="#16a34a"/>
  <path d="M16 6C12.5 6 10 8.5 10 12C10 15.5 12.5 18 16 18C19.5 18 22 15.5 22 12C22 8.5 19.5 6 16 6ZM16 16C13.8 16 12 14.2 12 12C12 9.8 13.8 8 16 8C18.2 8 20 9.8 20 12C20 14.2 18.2 16 16 16Z" fill="white"/>
  <path d="M16 20C13.5 20 11 22.5 11 26H21C21 22.5 18.5 20 16 20Z" fill="white"/>
  <path d="M8 14C6.9 14 6 14.9 6 16C6 17.1 6.9 18 8 18C9.1 18 10 17.1 10 16C10 14.9 9.1 14 8 14ZM8 16C8 16 8 16 8 16C8 16 8 16 8 16Z" fill="white"/>
  <path d="M24 14C22.9 14 22 14.9 22 16C22 17.1 22.9 18 24 18C25.1 18 26 17.1 26 16C26 14.9 25.1 14 24 14ZM24 16C24 16 24 16 24 16C24 16 24 16 24 16Z" fill="white"/>
</svg> 